HIERARCHY
ROOT Hips
{
  OFFSET 263.056 91.6644 -274.608
  CHANNELS 6 Xposition Yposition Zposition Zrotation Xrotation Yrotation
  JOINT LeftUpLeg
  {
    OFFSET 8.64259 1.95398 -2.38835
    CHANNELS 3 Zrotation Xrotation Yrotation
    JOINT LeftLeg
    {
      OFFSET 43.7702 0 0
      CHANNELS 3 Zrotation Xrotation Yrotation
      JOINT LeftFoot
      {
        OFFSET 40.6238 0 0
        CHANNELS 3 Zrotation Xrotation Yrotation
        JOINT LeftToeBase
        {
          OFFSET 12.7242 0 0
          CHANNELS 3 Zrotation Xrotation Yrotation
          End Site
          {
            OFFSET 0 0 0
          }
        }
      }
    }
  }
  JOINT RightUpLeg
  {
    OFFSET -8.2249 1.95398 -2.59336
    CHANNELS 3 Zrotation Xrotation Yrotation
    JOINT RightLeg
    {
      OFFSET 43.5653 0 0
      CHANNELS 3 Zrotation Xrotation Yrotation
      JOINT RightFoot
      {
        OFFSET 40.6238 0 0
        CHANNELS 3 Zrotation Xrotation Yrotation
        JOINT RightToeBase
        {
          OFFSET 12.7242 0 0
          CHANNELS 3 Zrotation Xrotation Yrotation
          End Site
          {
            OFFSET 0 0 0
          }
        }
      }
    }
  }
  JOINT Spine
  {
    OFFSET 0.165834 0.87714 6.61349
    CHANNELS 3 Zrotation Xrotation Yrotation
    JOINT Spine1
    {
      OFFSET 7.38963 1.71661e-005 0
      CHANNELS 3 Zrotation Xrotation Yrotation
      JOINT Spine2
      {
        OFFSET 11.9445 1.14441e-005 0
        CHANNELS 3 Zrotation Xrotation Yrotation
        JOINT Spine3
        {
          OFFSET 14.7254 4.19617e-005 0
          CHANNELS 3 Zrotation Xrotation Yrotation
          JOINT Spine4
          {
            OFFSET 10.9679 0 0
            CHANNELS 3 Zrotation Xrotation Yrotation
            JOINT RightShoulder
            {
              OFFSET 2.46616 -1.6653 3.69651
              CHANNELS 3 Zrotation Xrotation Yrotation
              JOINT RightArm
              {
                OFFSET 13.0012 0 0
                CHANNELS 3 Zrotation Xrotation Yrotation
                JOINT RightForeArm
                {
                  OFFSET 28.7848 1.52588e-005 0
                  CHANNELS 3 Zrotation Xrotation Yrotation
                  JOINT RightHand
                  {
                    OFFSET 26.5688 1.52588e-005 0
                    CHANNELS 3 Zrotation Xrotation Yrotation
                    End Site
                    {
                      OFFSET 0 0 0
                    }
                  }
                }
              }
            }
            JOINT LeftShoulder
            {
              OFFSET 2.38034 -1.29275 -3.7523
              CHANNELS 3 Zrotation Xrotation Yrotation
              JOINT LeftArm
              {
                OFFSET 16.3182 6.10352e-005 0
                CHANNELS 3 Zrotation Xrotation Yrotation
                JOINT LeftForeArm
                {
                  OFFSET 27.0901 0 0
                  CHANNELS 3 Zrotation Xrotation Yrotation
                  JOINT LeftHand
                  {
                    OFFSET 24.5451 1.52588e-005 0
                    CHANNELS 3 Zrotation Xrotation Yrotation
                    End Site
                    {
                      OFFSET 0 0 0
                    }
                  }
                }
              }
            }
            JOINT Neck
            {
              OFFSET 5.0226 -0.0266342 0
              CHANNELS 3 Zrotation Xrotation Yrotation
              JOINT Head
              {
                OFFSET 6.69364 2.86102e-005 0
                CHANNELS 3 Zrotation Xrotation Yrotation
                End Site
                {
                  OFFSET 0 0 0
                }
              }
            }
          }
        }
      }
    }
  }
}
MOTION
Frames:	11
Frame Time:	0.0416667
-33.9689 9.92563 10.6147 3.25643 -1.93595 77.1619 -176.29 7.85412 88.7728 -22.3573 32.3665 0.185321 54.474 -2.54495 4.93662 93.6831 62.1269 -6.6391 -179.09 9.6129 89.8778 -30.0247 -11.8201 -6.02131 59.3984 0.729507 0.597824 61.3697 9.08043 30.005 1.97571 6.59259 -92.6017 13.728 2.6527 -5.56269 2.04741 2.40571 -5.6736 -20.4415 4.20033 -4.51131 -0.428783 4.20033 -4.51131 97.845 -27.5536 -91.3026 -76.4419 36.6717 89.5823 -14.0833 -17.2318 -148.015 -45.6482 -2.43023 3.68347 -148.415 -35.8516 -6.87093 130.552 10.5851 122.994 16.2056 55.8402 -166.949 48.6365 4.43573 5.10054 24.2015 -24.1685 56.3575 -11.4411 -39.4356 -45.244 
-33.9914 9.92743 10.6322 3.18963 -1.92321 77.1945 -176.171 8.01037 88.8709 -22.4584 32.6076 0.0852201 54.5093 -2.50718 5.14667 94.0855 63.0709 -5.89819 -179.079 9.57702 89.891 -29.8867 -11.8503 -5.98522 59.3571 0.732349 0.600211 61.3315 9.00966 29.7759 1.96508 6.56927 -92.6067 13.774 2.62792 -5.57156 2.09334 2.38057 -5.68138 -20.3947 4.17933 -4.52722 -0.382034 4.17934 -4.52725 97.5017 -28.51 -91.8664 -78.4568 36.0153 90.1219 -13.7125 -18.2686 -147.794 -45.2726 -2.29118 3.34482 -148.415 -35.8716 -6.85552 129.972 10.2699 123.069 15.7322 56.3194 -166.669 48.6079 4.31975 4.86452 23.8881 -24.2167 56.8346 -11.8206 -39.3511 -46.1692 
-33.9889 9.92854 10.5893 3.28909 -1.92806 77.1818 -176.219 7.95129 88.831 -22.586 32.3572 0.14836 54.8208 -2.37102 4.69972 93.1632 64.1712 -3.43116 -179.165 9.44343 89.7937 -29.8122 -11.8375 -5.93765 59.1581 0.792694 0.643021 61.3942 9.21924 30.4951 1.96098 6.62319 -92.6056 13.6659 2.62353 -5.56349 1.98526 2.37653 -5.67311 -20.5029 4.17273 -4.52086 -0.490232 4.17271 -4.52086 97.8334 -27.7509 -91.289 -76.6203 36.8632 89.4714 -13.9278 -17.3053 -147.668 -46.27 -2.26382 3.16427 -148.361 -36.0281 -6.68227 130.549 10.3818 123.303 16.1091 56.0036 -166.962 49.2695 4.46446 5.02739 25.1959 -23.4593 57.0714 -12.9224 -38.9759 -46.2319 
-33.9667 9.91191 10.5359 3.32008 -1.92726 77.1519 -176.31 7.84678 88.7381 -22.5045 32.3495 0.197006 54.7165 -2.38594 4.82242 93.6261 62.0024 -6.73306 -179.23 9.49753 89.7279 -29.9119 -11.8588 -5.92059 59.0255 0.866726 0.695687 61.0788 9.66193 32.7423 1.96056 6.599 -92.5952 13.7144 2.62621 -5.54548 2.03381 2.38 -5.65524 -20.4549 4.16988 -4.50281 -0.442243 4.16989 -4.50285 98.0315 -26.5158 -91.0567 -73.3886 37.1071 88.4006 -14.5789 -15.5797 -148.049 -45.3876 -2.30242 3.39351 -148.382 -35.9289 -6.77859 130.556 10.5543 123.223 16.2045 56.0064 -167.102 48.5498 4.45611 5.16136 24.2481 -24.0861 56.6936 -12.1078 -39.2455 -46.1986 
-33.9709 9.903 10.5108 3.33681 -1.77257 77.161 -176.379 7.95507 88.7244 -22.6548 32.6437 0.231382 54.7873 -2.316 4.93078 92.5336 63.662 -3.33328 -179.303 9.40097 89.6847 -29.8202 -12.0029 -5.8606 59.4836 0.688237 0.567705 61.0224 8.95863 30.0059 1.95598 6.5951 -92.5859 13.7221 2.6215 -5.52651 2.04156 2.37614 -5.63608 -20.4476 4.1597 -4.48611 -0.434933 4.15971 -4.48613 97.775 -27.791 -91.4038 -76.9383 36.5505 89.8844 -14.3216 -17.3972 -148.018 -46.2419 -2.19517 3.00686 -148.399 -35.821 -6.87736 131.154 11.0257 123.174 16.2517 56.3999 -167.085 48.5339 4.28841 4.8143 24.0097 -24.432 56.1196 -11.6467 -39.415 -45.7079 
-33.9921 9.90534 10.666 3.2295 -2.28046 77.149 -176.14 7.7763 88.8668 -22.2789 32.5742 0.0670482 54.4207 -2.61581 4.9736 93.9599 63.7598 -4.87773 -179.031 9.59625 89.9075 -30.0251 -11.8453 -6.09775 59.1376 0.837689 0.674111 61.6133 9.25625 30.3661 1.99984 6.61421 -92.6077 13.686 2.69885 -5.57866 2.00539 2.45113 -5.69156 -20.4841 4.24913 -4.51268 -0.471459 4.24914 -4.51267 97.6603 -27.1716 -91.7498 -76.3939 36.5735 89.9467 -14.51 -17.0244 -148.081 -45.7445 -2.08702 2.78658 -148.451 -35.8758 -6.88975 130.38 10.3468 123.432 15.7571 56.5944 -166.772 48.58 4.27223 4.77106 24.3945 -23.8663 57.1402 -12.3695 -39.1806 -46.3857 
-34.005 9.91559 10.6581 3.28108 -2.2794 77.1328 -176.096 7.78075 88.884 -22.3472 32.8188 0.0233729 54.4338 -2.61177 5.09934 94.3579 62.6575 -6.74168 -179.008 9.48581 89.8914 -30.0312 -12.04 -6.10951 59.3033 0.752815 0.61302 61.1071 8.91801 29.7138 2.00781 6.61452 -92.6083 13.6859 2.71435 -5.58166 2.00527 2.46648 -5.69528 -20.4845 4.26482 -4.51091 -0.471895 4.26482 -4.51092 98.3701 -25.2172 -90.51 -70.4071 37.8081 87.3425 -15.0292 -14.2679 -148.345 -46.255 -2.33232 3.38251 -148.451 -35.8781 -6.88819 131.029 10.9594 123.427 16.3879 56.1834 -167.287 48.4609 4.36659 4.99305 24.1247 -24.0796 57.2896 -12.6303 -39.1867 -46.9897 
-34.0241 9.92808 10.6547 3.32771 -2.2539 77.1468 -176.037 7.82319 88.9177 -22.486 32.8892 -0.0198477 54.7513 -2.34447 5.20427 94.3435 63.9246 -5.11308 -179.044 9.32416 89.8625 -29.8334 -11.878 -6.05121 59.4143 0.687535 0.56748 61.1329 9.2459 31.0103 2.01901 6.6464 -92.6097 13.6228 2.73774 -5.58451 1.94221 2.48971 -5.69913 -20.5481 4.28798 -4.50657 -0.535441 4.28797 -4.5066 97.7161 -27.3471 -91.6058 -78.0678 36.3957 90.9558 -14.1709 -18.2766 -147.989 -45.783 -2.07984 2.75211 -148.436 -35.8712 -6.8775 130.71 10.3941 123.447 16.059 56.1864 -167.004 48.5544 4.34712 4.93265 24.9402 -23.7583 57.0174 -12.8091 -39.1396 -46.1168 
-33.9995 9.90241 10.6344 3.25526 -2.07153 77.2066 -176.151 7.85288 88.9337 -22.3407 33.0621 0.069074 54.2821 -2.71631 5.18788 95.6155 63.8342 -6.69088 -179.1 9.56209 89.9014 -29.9806 -11.5983 -5.96487 58.9802 0.877877 0.704604 60.5481 8.95147 30.66 1.95183 6.56724 -92.5935 13.7774 2.60795 -5.54269 2.09684 2.36189 -5.65166 -20.3915 4.15163 -4.50566 -0.378863 4.15164 -4.50567 97.6897 -25.5878 -91.9513 -72.0577 36.7838 88.6596 -15.0172 -15.0683 -148.389 -44.7005 -2.53619 4.14632 -148.364 -35.9704 -6.72923 130.698 11.0302 123.15 16.1935 56.4617 -167.094 48.4354 4.3779 5.02159 22.2858 -25.1153 56.5887 -11.3003 -39.5097 -47.1457 
-33.9943 9.90399 10.6637 3.26806 -2.2439 77.1493 -176.138 7.82517 88.8882 -22.3956 32.879 0.0534862 54.5177 -2.5313 5.08266 93.235 62.277 -5.92335 -179.019 9.47125 89.9039 -29.932 -11.8378 -6.08518 59.2256 0.786699 0.639379 61.339 9.04464 29.9058 2.01304 6.66293 -92.5972 13.5895 2.73286 -5.5572 1.90909 2.48606 -5.67161 -20.5819 4.27515 -4.48195 -0.569214 4.27515 -4.48195 98.2645 -26.4343 -90.5638 -74.7348 37.6691 89.3879 -14.4017 -16.6501 -148.248 -45.8482 -2.47998 3.80082 -148.353 -35.9479 -6.73454 130.951 10.4337 123.333 16.1381 56.1475 -166.971 49.2964 4.29362 4.67038 25.3342 -23.6445 56.4161 -12.9176 -38.9893 -45.5362 
-34.0057 9.89822 10.6673 3.2466 -2.25274 77.1476 -176.159 7.78667 88.8804 -22.3016 32.9726 0.0641151 54.5288 -2.48492 5.22861 95.1511 63.448 -6.64768 -179.045 9.53411 89.8879 -29.9316 -11.8178 -6.06382 59.1372 0.819105 0.660735 61.3679 9.41743 31.3517 1.98366 6.6264 -92.607 13.6607 2.66789 -5.57177 1.98012 2.42047 -5.68334 -20.5089 4.21753 -4.51544 -0.496174 4.21751 -4.51545 97.6531 -26.7144 -91.8543 -75.2559 36.6999 89.6355 -14.2614 -16.8387 -148.064 -46.5272 -2.18835 2.95498 -148.422 -35.9654 -6.7919 130.832 10.8062 123.328 16.0924 56.5159 -166.985 48.7777 4.32825 4.84725 23.8499 -24.2374 57.0307 -12.3194 -39.2226 -46.8671 
